<svg xmlns="http://www.w3.org/2000/svg" viewBox="0 0 230 50"><title>Asset 3</title><g id="ba4401e6-8d02-4c07-be0a-455d98e9b9dd" data-name="Layer 2"><g id="a25f9b92-17d8-4312-8dc3-356a48d5c58e" data-name="Layer 1"><path d="M25,0A25,25,0,1,0,50,25,25,25,0,0,0,25,0Zm0,38.5A13.5,13.5,0,1,1,38.5,25,13.49,13.49,0,0,1,25,38.5Z" style="fill:#ffe1c2"/><path d="M85,0a25,25,0,1,0,25,25A25,25,0,0,0,85,0Zm0,38.5A13.5,13.5,0,1,1,98.5,25,13.49,13.49,0,0,1,85,38.5Z" style="fill:#ffe1c2"/><path d="M145,0a25,25,0,1,0,25,25A25,25,0,0,0,145,0Zm0,38.5A13.5,13.5,0,1,1,158.5,25,13.49,13.49,0,0,1,145,38.5Z" style="fill:#ffe1c2"/><path d="M205,0a25,25,0,1,0,25,25A25,25,0,0,0,205,0Zm0,38.5A13.5,13.5,0,1,1,218.5,25,13.49,13.49,0,0,1,205,38.5Z" style="fill:#ffe1c2"/></g></g></svg>